<svg width="322" height="141" viewBox="0 0 322 141" fill="none" xmlns="http://www.w3.org/2000/svg">
<rect y="69" width="50.8221" height="51.3561" rx="25.4111" fill="#0A0A0B"/>
<path d="M20.9951 97.2301V86.7301L29.1545 82.0197C33.6753 79.4093 41.7691 85.8478 38.3712 91.7395M20.9951 92.1259L30.0878 86.8759L38.2472 91.5864C42.768 94.1968 41.2368 104.427 34.4337 104.427M25.4139 89.5739L34.5066 94.8239V104.252C34.5066 109.473 24.8816 113.264 21.4837 107.373M29.8326 92.3155V102.626L21.6732 107.336C17.1524 109.947 9.05865 103.508 12.4566 97.6166M29.8326 97.2301L20.7399 102.48L12.5805 97.7697C8.0524 95.152 9.58365 84.9291 16.3868 84.9291M25.4139 99.7822L16.3212 94.5322V85.1041C16.3212 79.8832 25.9462 76.0916 29.3441 81.9832" stroke="white" stroke-width="1.5" stroke-linejoin="round"/>
<path d="M223 24.5833C223 11.0063 234.184 0 247.761 0C261.143 0 272.167 10.8482 272.167 24.23C272.167 37.6119 261.319 48.4601 247.937 48.4601H225C223.895 48.4601 223 47.5647 223 46.4601V24.5833Z" fill="#0A0A0B"/>
<path d="M247.583 10C245.668 10 243.772 10.3772 242.003 11.1101C240.233 11.843 238.626 12.9172 237.271 14.2714C234.536 17.0063 233 20.7156 233 24.5833C233 31.0292 237.185 36.4979 242.975 38.4375C243.704 38.5542 243.937 38.1021 243.937 37.7083V35.2437C239.898 36.1187 239.037 33.2896 239.037 33.2896C238.367 31.5979 237.419 31.1458 237.419 31.1458C236.092 30.2417 237.521 30.2708 237.521 30.2708C238.979 30.3729 239.752 31.7729 239.752 31.7729C241.021 33.9896 243.165 33.3333 243.996 32.9833C244.127 32.0354 244.506 31.3938 244.915 31.0292C241.677 30.6646 238.279 29.4104 238.279 23.8542C238.279 22.2354 238.833 20.9375 239.781 19.9021C239.635 19.5375 239.125 18.0208 239.927 16.0521C239.927 16.0521 241.152 15.6583 243.937 17.5396C245.09 17.2188 246.344 17.0583 247.583 17.0583C248.823 17.0583 250.077 17.2188 251.229 17.5396C254.015 15.6583 255.24 16.0521 255.24 16.0521C256.042 18.0208 255.531 19.5375 255.385 19.9021C256.333 20.9375 256.887 22.2354 256.887 23.8542C256.887 29.425 253.475 30.65 250.223 31.0146C250.748 31.4667 251.229 32.3563 251.229 33.7125V37.7083C251.229 38.1021 251.462 38.5688 252.206 38.4375C257.996 36.4833 262.167 31.0292 262.167 24.5833C262.167 22.6682 261.789 20.7719 261.057 19.0025C260.324 17.2332 259.249 15.6255 257.895 14.2714C256.541 12.9172 254.933 11.843 253.164 11.1101C251.395 10.3772 249.498 10 247.583 10Z" fill="white"/>
<rect x="87" y="5" width="55" height="52.8813" rx="26.4406" fill="#0A0A0B"/>
<path d="M121.413 27.3304H130.453C131.308 27.3304 132 28.0298 132 28.8923V37.2087C132 40.3789 129.455 42.9491 126.316 42.9491H126.289C123.15 42.9495 120.605 40.3799 120.605 37.2096V28.1468C120.605 28.0396 120.625 27.9334 120.666 27.8344C120.707 27.7353 120.766 27.6453 120.841 27.5695C120.916 27.4936 121.005 27.4335 121.104 27.3925C121.202 27.3515 121.307 27.3304 121.413 27.3304Z" fill="#5059C9"/>
<path d="M127.523 25.6865C129.546 25.6865 131.186 24.0303 131.186 21.9873C131.186 19.9443 129.546 18.2881 127.523 18.2881C125.5 18.2881 123.86 19.9443 123.86 21.9873C123.86 24.0303 125.5 25.6865 127.523 25.6865Z" fill="#5059C9"/>
<path d="M116.128 25.6865C119.05 25.6865 121.419 23.2942 121.419 20.3432C121.419 17.3922 119.05 15 116.128 15C113.206 15 110.837 17.3922 110.837 20.3432C110.837 23.2942 113.206 25.6865 116.128 25.6865Z" fill="#7B83EB"/>
<path d="M123.182 27.3304H108.259C107.416 27.3515 106.748 28.0589 106.767 28.9112V38.3966C106.65 43.5114 110.656 47.756 115.721 47.8813C120.785 47.756 124.792 43.5114 124.674 38.3966V28.9112C124.694 28.0589 124.026 27.3515 123.182 27.3304Z" fill="#7B83EB"/>
<path d="M116.535 27.3304V40.6226C116.533 40.9208 116.444 41.2117 116.279 41.4589C116.114 41.706 115.88 41.8984 115.607 42.0119C115.429 42.0879 115.238 42.127 115.045 42.127H107.484C107.378 41.8556 107.28 41.5843 107.199 41.305C106.914 40.3617 106.768 39.3811 106.767 38.3949V28.9087C106.748 28.0578 107.414 27.3515 108.257 27.3305L116.535 27.3304Z" fill="#0A0A0B"/>
<path d="M115.721 27.3304V41.4447C115.721 41.6396 115.682 41.8325 115.607 42.0119C115.495 42.2876 115.304 42.5237 115.059 42.6904C114.815 42.8571 114.527 42.9471 114.231 42.9491H107.866C107.728 42.6778 107.597 42.4064 107.484 42.127C107.374 41.8583 107.279 41.5839 107.199 41.305C106.914 40.3617 106.768 39.3811 106.767 38.3949V28.9087C106.748 28.0578 107.414 27.3515 108.257 27.3305L115.721 27.3304Z" fill="#0A0A0B"/>
<path d="M115.721 27.3304V39.8007C115.715 40.6289 115.052 41.2988 114.231 41.305L107.199 41.305C106.914 40.3617 106.768 39.3811 106.767 38.3949V28.9087C106.748 28.0578 107.414 27.3515 108.257 27.3305L115.721 27.3304Z" fill="#0A0A0B"/>
<path d="M114.907 27.3304V39.8007C114.901 40.6289 114.238 41.2988 113.417 41.305L107.199 41.305C106.914 40.3617 106.768 39.3811 106.767 38.3949V28.9087C106.748 28.0578 107.414 27.3515 108.257 27.3305L114.907 27.3304Z" fill="#0A0A0B"/>
<path d="M116.535 23.0806V25.6699C116.397 25.6782 116.266 25.6865 116.128 25.6865C115.99 25.6865 115.859 25.6782 115.721 25.6699C115.446 25.6515 115.174 25.6075 114.907 25.5385C114.094 25.3441 113.339 24.9583 112.702 24.4125C112.066 23.8667 111.566 23.1765 111.244 22.3984C111.132 22.1333 111.045 21.858 110.984 21.5763H115.045C115.867 21.5794 116.532 22.251 116.535 23.0806Z" fill="#0A0A0B"/>
<path d="M115.721 23.9025V25.6699C115.446 25.6515 115.174 25.6075 114.907 25.5385C114.094 25.3441 113.339 24.9583 112.702 24.4125C112.066 23.8667 111.566 23.1765 111.244 22.3984H114.231C115.053 22.4014 115.718 23.0731 115.721 23.9025Z" fill="#0A0A0B"/>
<path d="M115.721 23.9025V25.6699C115.446 25.6515 115.174 25.6075 114.907 25.5385C114.094 25.3441 113.339 24.9583 112.702 24.4125C112.066 23.8667 111.566 23.1765 111.244 22.3984H114.231C115.053 22.4014 115.718 23.0731 115.721 23.9025Z" fill="#0A0A0B"/>
<path d="M114.907 23.9025V25.5385C114.094 25.3441 113.339 24.9583 112.702 24.4125C112.066 23.8667 111.566 23.1765 111.244 22.3984L113.417 22.3982C114.239 22.4014 114.904 23.0731 114.907 23.9025Z" fill="#0A0A0B"/>
<path d="M98.492 22.3982H113.415C114.239 22.3982 114.907 23.0728 114.907 23.905V38.9761C114.907 39.8083 114.239 40.4829 113.415 40.4829H98.492C97.668 40.4829 97 39.8083 97 38.9761V23.9052C97 23.0727 97.668 22.3982 98.492 22.3982Z" fill="url(#paint0_linear_1324_4390)"/>
<path d="M109.88 28.1344H106.897V36.3383H104.996V28.1344H102.027V26.543H109.88V28.1344Z" fill="white"/>
<path d="M142 113.328C142 98.2351 154.235 86 169.328 86H194.656C195.76 86 196.656 86.8954 196.656 88V113.328C196.656 128.421 184.421 140.656 169.328 140.656C154.235 140.656 142 128.421 142 113.328Z" fill="#0A0A0B"/>
<path d="M159.28 117.899C159.28 119.904 157.646 121.541 155.641 121.541C153.637 121.541 152 119.904 152 117.899C152 115.895 153.637 114.258 155.641 114.258H159.281L159.28 117.899ZM161.115 117.899C161.115 115.895 162.752 114.258 164.756 114.258C166.76 114.258 168.397 115.895 168.397 117.899V127.014C168.397 129.019 166.761 130.656 164.756 130.656C162.752 130.656 161.115 129.019 161.115 127.014V117.899Z" fill="#DE1C59"/>
<path d="M164.756 103.28C162.752 103.28 161.115 101.646 161.115 99.6411C161.115 97.6365 162.752 96 164.756 96C166.76 96 168.397 97.6371 168.397 99.6414V103.281L164.756 103.28ZM164.756 105.115C166.76 105.115 168.397 106.752 168.397 108.756C168.397 110.76 166.761 112.397 164.756 112.397H155.641C153.637 112.397 152 110.761 152 108.756C152 106.752 153.637 105.115 155.641 105.115H164.756Z" fill="#35C5F0"/>
<path d="M179.375 108.756C179.375 106.752 181.01 105.115 183.014 105.115C185.019 105.115 186.656 106.752 186.656 108.756C186.656 110.76 185.019 112.397 183.014 112.397H179.375V108.756ZM177.541 108.756C177.541 110.76 175.904 112.397 173.899 112.397C171.895 112.397 170.258 110.761 170.258 108.756V99.6411C170.258 97.6368 171.895 96 173.899 96C175.904 96 177.541 97.6371 177.541 99.6414V108.756Z" fill="#2EB57D"/>
<path d="M173.899 123.375C175.904 123.375 177.541 125.01 177.541 127.014C177.541 129.019 175.904 130.656 173.899 130.656C171.895 130.656 170.258 129.019 170.258 127.014V123.375H173.899ZM173.899 121.541C171.895 121.541 170.258 119.904 170.258 117.899C170.258 115.895 171.895 114.258 173.899 114.258H183.014C185.019 114.258 186.656 115.895 186.656 117.899C186.656 119.904 185.019 121.541 183.014 121.541H173.899Z" fill="#EBB02E"/>
<rect x="267" y="79" width="55.0001" height="47.9724" rx="4" fill="#0A0A0B"/>
<path d="M300.277 96.7229L303.319 93.6982L303.522 92.4246C297.978 87.4128 289.165 87.9811 284.167 93.6104C282.779 95.1739 281.749 97.1232 281.2 99.1361L282.289 98.9834L288.374 97.9858L288.844 97.5083C291.55 94.553 296.127 94.1555 299.252 96.6699L300.277 96.7229Z" fill="#EA4335"/>
<path d="M307.653 99.047C306.954 96.4868 305.518 94.1852 303.522 92.4246L299.252 96.6699C300.142 97.3928 300.855 98.3071 301.337 99.3439C301.82 100.381 302.06 101.513 302.038 102.655V103.409C304.137 103.409 305.838 105.1 305.838 107.187C305.838 109.274 304.137 110.923 302.038 110.923H294.427L293.679 111.729V116.261L294.427 116.972H302.038C307.497 117.014 311.957 112.691 312 107.264C312.012 105.644 311.622 104.047 310.864 102.613C310.106 101.179 309.003 99.9545 307.653 99.047Z" fill="#4285F4"/>
<path d="M286.826 116.972L294.427 116.972V110.923L286.826 110.923C286.288 110.923 285.756 110.807 285.268 110.583L284.189 110.912L281.126 113.937L280.859 114.966C282.577 116.256 284.673 116.981 286.826 116.972Z" fill="#34A853"/>
<path d="M286.826 97.3491C281.367 97.3813 276.968 101.807 277 107.235C277.009 108.731 277.361 110.204 278.03 111.544C278.699 112.884 279.666 114.055 280.859 114.966L285.268 110.583C283.355 109.724 282.505 107.486 283.369 105.585C284.233 103.683 286.484 102.838 288.397 103.697C289.24 104.076 289.915 104.747 290.295 105.585L294.704 101.201C293.779 99.9987 292.586 99.0252 291.22 98.3569C289.853 97.6886 288.349 97.3436 286.826 97.3491Z" fill="#FBBC05"/>
<defs>
<linearGradient id="paint0_linear_1324_4390" x1="705.02" y1="-199.057" x2="2781.79" y2="3629.57" gradientUnits="userSpaceOnUse">
<stop stop-color="#5A62C3"/>
<stop offset="0.5" stop-color="#4D55BD"/>
<stop offset="1" stop-color="#3940AB"/>
</linearGradient>
</defs>
</svg>
