<svg width="122" height="50" viewBox="0 0 122 50" fill="none" xmlns="http://www.w3.org/2000/svg">
<path d="M3.41804 0.370612C3.2715 0.361425 3.12473 0.384621 2.98817 0.438551C2.8516 0.492481 2.72859 0.575823 2.62786 0.682655C2.52714 0.789488 2.45118 0.91719 2.40537 1.05669C2.35957 1.19619 2.34505 1.34407 2.36284 1.48981L3.87424 17.7072C3.97084 18.4948 4.90164 18.8618 5.50944 18.3518L8.69884 15.7654L10.1288 18.2424C10.9512 19.6668 12.256 20.0168 13.6804 19.1944C15.1048 18.372 15.4544 17.0668 14.632 15.6424L13.207 13.1744L16.9862 11.7256C17.7318 11.4542 17.8796 10.4644 17.2462 9.98701L3.95684 0.569412C3.80048 0.451852 3.61328 0.382732 3.41804 0.370612Z" fill="#FF5526"/>
<rect x="13" y="25" width="109" height="25" rx="12.5" fill="#FF5526"/>
<path d="M29.77 42V34.55H32.91C33.3767 34.55 33.78 34.6333 34.12 34.8C34.46 34.96 34.72 35.1933 34.9 35.5C35.08 35.8 35.17 36.1567 35.17 36.57C35.17 36.93 35.0767 37.26 34.89 37.56C34.71 37.8533 34.4267 38.0867 34.04 38.26V37.76C34.38 37.8933 34.6567 38.0633 34.87 38.27C35.0833 38.47 35.2367 38.6967 35.33 38.95C35.43 39.2033 35.48 39.47 35.48 39.75C35.48 40.45 35.25 41 34.79 41.4C34.3367 41.8 33.7133 42 32.92 42H29.77ZM30.95 40.95H33.01C33.4033 40.95 33.7167 40.8433 33.95 40.63C34.1833 40.41 34.3 40.12 34.3 39.76C34.3 39.3933 34.1833 39.1033 33.95 38.89C33.7167 38.67 33.4033 38.56 33.01 38.56H30.95V40.95ZM30.95 37.52H32.94C33.26 37.52 33.5167 37.43 33.71 37.25C33.9033 37.0633 34 36.82 34 36.52C34 36.22 33.9033 35.9867 33.71 35.82C33.5167 35.6533 33.26 35.57 32.94 35.57H30.95V37.52ZM36.5838 42V34.43H37.7138V37.65L37.5338 37.51C37.6672 37.17 37.8805 36.9133 38.1738 36.74C38.4672 36.56 38.8072 36.47 39.1938 36.47C39.5938 36.47 39.9472 36.5567 40.2538 36.73C40.5605 36.9033 40.8005 37.1433 40.9738 37.45C41.1472 37.7567 41.2338 38.1067 41.2338 38.5V42H40.1138V38.81C40.1138 38.5367 40.0605 38.3067 39.9538 38.12C39.8538 37.9267 39.7138 37.78 39.5338 37.68C39.3538 37.5733 39.1472 37.52 38.9138 37.52C38.6872 37.52 38.4805 37.5733 38.2938 37.68C38.1138 37.78 37.9705 37.9267 37.8638 38.12C37.7638 38.3133 37.7138 38.5433 37.7138 38.81V42H36.5838ZM44.0632 42.12C43.6965 42.12 43.3732 42.0567 43.0932 41.93C42.8199 41.7967 42.6065 41.6167 42.4532 41.39C42.2999 41.1567 42.2232 40.8833 42.2232 40.57C42.2232 40.2767 42.2865 40.0133 42.4132 39.78C42.5465 39.5467 42.7499 39.35 43.0232 39.19C43.2965 39.03 43.6399 38.9167 44.0532 38.85L45.9332 38.54V39.43L44.2732 39.72C43.9732 39.7733 43.7532 39.87 43.6132 40.01C43.4732 40.1433 43.4032 40.3167 43.4032 40.53C43.4032 40.7367 43.4799 40.9067 43.6332 41.04C43.7932 41.1667 43.9965 41.23 44.2432 41.23C44.5499 41.23 44.8165 41.1633 45.0432 41.03C45.2765 40.8967 45.4565 40.72 45.5832 40.5C45.7099 40.2733 45.7732 40.0233 45.7732 39.75V38.36C45.7732 38.0933 45.6732 37.8767 45.4732 37.71C45.2799 37.5367 45.0199 37.45 44.6932 37.45C44.3932 37.45 44.1299 37.53 43.9032 37.69C43.6832 37.8433 43.5199 38.0433 43.4132 38.29L42.4732 37.82C42.5732 37.5533 42.7365 37.32 42.9632 37.12C43.1899 36.9133 43.4532 36.7533 43.7532 36.64C44.0599 36.5267 44.3832 36.47 44.7232 36.47C45.1499 36.47 45.5265 36.55 45.8532 36.71C46.1865 36.87 46.4432 37.0933 46.6232 37.38C46.8099 37.66 46.9032 37.9867 46.9032 38.36V42H45.8232V41.02L46.0532 41.05C45.9265 41.27 45.7632 41.46 45.5632 41.62C45.3699 41.78 45.1465 41.9033 44.8932 41.99C44.6465 42.0767 44.3699 42.12 44.0632 42.12ZM48.2245 42V36.59H49.3045V37.68L49.2045 37.52C49.3245 37.1667 49.5178 36.9133 49.7845 36.76C50.0511 36.6 50.3711 36.52 50.7445 36.52H51.0745V37.55H50.6045C50.2311 37.55 49.9278 37.6667 49.6945 37.9C49.4678 38.1267 49.3545 38.4533 49.3545 38.88V42H48.2245ZM53.4675 42.12C53.1008 42.12 52.7775 42.0567 52.4975 41.93C52.2242 41.7967 52.0108 41.6167 51.8575 41.39C51.7042 41.1567 51.6275 40.8833 51.6275 40.57C51.6275 40.2767 51.6908 40.0133 51.8175 39.78C51.9508 39.5467 52.1542 39.35 52.4275 39.19C52.7008 39.03 53.0442 38.9167 53.4575 38.85L55.3375 38.54V39.43L53.6775 39.72C53.3775 39.7733 53.1575 39.87 53.0175 40.01C52.8775 40.1433 52.8075 40.3167 52.8075 40.53C52.8075 40.7367 52.8842 40.9067 53.0375 41.04C53.1975 41.1667 53.4008 41.23 53.6475 41.23C53.9542 41.23 54.2208 41.1633 54.4475 41.03C54.6808 40.8967 54.8608 40.72 54.9875 40.5C55.1142 40.2733 55.1775 40.0233 55.1775 39.75V38.36C55.1775 38.0933 55.0775 37.8767 54.8775 37.71C54.6842 37.5367 54.4242 37.45 54.0975 37.45C53.7975 37.45 53.5342 37.53 53.3075 37.69C53.0875 37.8433 52.9242 38.0433 52.8175 38.29L51.8775 37.82C51.9775 37.5533 52.1408 37.32 52.3675 37.12C52.5942 36.9133 52.8575 36.7533 53.1575 36.64C53.4642 36.5267 53.7875 36.47 54.1275 36.47C54.5542 36.47 54.9308 36.55 55.2575 36.71C55.5908 36.87 55.8475 37.0933 56.0275 37.38C56.2142 37.66 56.3075 37.9867 56.3075 38.36V42H55.2275V41.02L55.4575 41.05C55.3308 41.27 55.1675 41.46 54.9675 41.62C54.7742 41.78 54.5508 41.9033 54.2975 41.99C54.0508 42.0767 53.7742 42.12 53.4675 42.12ZM59.8711 42.06C59.3044 42.06 58.8644 41.9 58.5511 41.58C58.2378 41.26 58.0811 40.81 58.0811 40.23V37.61H57.1311V36.59H57.2811C57.5344 36.59 57.7311 36.5167 57.8711 36.37C58.0111 36.2233 58.0811 36.0233 58.0811 35.77V35.35H59.2111V36.59H60.4411V37.61H59.2111V40.18C59.2111 40.3667 59.2411 40.5267 59.3011 40.66C59.3611 40.7867 59.4578 40.8867 59.5911 40.96C59.7244 41.0267 59.8978 41.06 60.1111 41.06C60.1644 41.06 60.2244 41.0567 60.2911 41.05C60.3578 41.0433 60.4211 41.0367 60.4811 41.03V42C60.3878 42.0133 60.2844 42.0267 60.1711 42.04C60.0578 42.0533 59.9578 42.06 59.8711 42.06ZM63.4419 42V34.55H66.5819C67.0485 34.55 67.4519 34.6333 67.7919 34.8C68.1319 34.96 68.3919 35.1933 68.5719 35.5C68.7519 35.8 68.8419 36.1567 68.8419 36.57C68.8419 36.93 68.7485 37.26 68.5619 37.56C68.3819 37.8533 68.0985 38.0867 67.7119 38.26V37.76C68.0519 37.8933 68.3285 38.0633 68.5419 38.27C68.7552 38.47 68.9085 38.6967 69.0019 38.95C69.1019 39.2033 69.1519 39.47 69.1519 39.75C69.1519 40.45 68.9219 41 68.4619 41.4C68.0085 41.8 67.3852 42 66.5919 42H63.4419ZM64.6219 40.95H66.6819C67.0752 40.95 67.3885 40.8433 67.6219 40.63C67.8552 40.41 67.9719 40.12 67.9719 39.76C67.9719 39.3933 67.8552 39.1033 67.6219 38.89C67.3885 38.67 67.0752 38.56 66.6819 38.56H64.6219V40.95ZM64.6219 37.52H66.6119C66.9319 37.52 67.1885 37.43 67.3819 37.25C67.5752 37.0633 67.6719 36.82 67.6719 36.52C67.6719 36.22 67.5752 35.9867 67.3819 35.82C67.1885 35.6533 66.9319 35.57 66.6119 35.57H64.6219V37.52ZM70.2557 42V34.43H71.3857V37.65L71.2057 37.51C71.339 37.17 71.5524 36.9133 71.8457 36.74C72.139 36.56 72.479 36.47 72.8657 36.47C73.2657 36.47 73.619 36.5567 73.9257 36.73C74.2324 36.9033 74.4724 37.1433 74.6457 37.45C74.819 37.7567 74.9057 38.1067 74.9057 38.5V42H73.7857V38.81C73.7857 38.5367 73.7324 38.3067 73.6257 38.12C73.5257 37.9267 73.3857 37.78 73.2057 37.68C73.0257 37.5733 72.819 37.52 72.5857 37.52C72.359 37.52 72.1524 37.5733 71.9657 37.68C71.7857 37.78 71.6424 37.9267 71.5357 38.12C71.4357 38.3133 71.3857 38.5433 71.3857 38.81V42H70.2557ZM77.7351 42.12C77.3684 42.12 77.0451 42.0567 76.7651 41.93C76.4917 41.7967 76.2784 41.6167 76.1251 41.39C75.9717 41.1567 75.8951 40.8833 75.8951 40.57C75.8951 40.2767 75.9584 40.0133 76.0851 39.78C76.2184 39.5467 76.4217 39.35 76.6951 39.19C76.9684 39.03 77.3117 38.9167 77.7251 38.85L79.6051 38.54V39.43L77.9451 39.72C77.6451 39.7733 77.4251 39.87 77.2851 40.01C77.1451 40.1433 77.0751 40.3167 77.0751 40.53C77.0751 40.7367 77.1517 40.9067 77.3051 41.04C77.4651 41.1667 77.6684 41.23 77.9151 41.23C78.2217 41.23 78.4884 41.1633 78.7151 41.03C78.9484 40.8967 79.1284 40.72 79.2551 40.5C79.3817 40.2733 79.4451 40.0233 79.4451 39.75V38.36C79.4451 38.0933 79.3451 37.8767 79.1451 37.71C78.9517 37.5367 78.6917 37.45 78.3651 37.45C78.0651 37.45 77.8017 37.53 77.5751 37.69C77.3551 37.8433 77.1917 38.0433 77.0851 38.29L76.1451 37.82C76.2451 37.5533 76.4084 37.32 76.6351 37.12C76.8617 36.9133 77.1251 36.7533 77.4251 36.64C77.7317 36.5267 78.0551 36.47 78.3951 36.47C78.8217 36.47 79.1984 36.55 79.5251 36.71C79.8584 36.87 80.1151 37.0933 80.2951 37.38C80.4817 37.66 80.5751 37.9867 80.5751 38.36V42H79.4951V41.02L79.7251 41.05C79.5984 41.27 79.4351 41.46 79.2351 41.62C79.0417 41.78 78.8184 41.9033 78.5651 41.99C78.3184 42.0767 78.0417 42.12 77.7351 42.12ZM81.8963 42V36.59H82.9763V37.65L82.8463 37.51C82.9797 37.17 83.193 36.9133 83.4863 36.74C83.7797 36.56 84.1197 36.47 84.5063 36.47C84.9063 36.47 85.2597 36.5567 85.5663 36.73C85.873 36.9033 86.113 37.1433 86.2863 37.45C86.4597 37.7567 86.5463 38.11 86.5463 38.51V42H85.4263V38.81C85.4263 38.5367 85.3763 38.3067 85.2763 38.12C85.1763 37.9267 85.033 37.78 84.8463 37.68C84.6663 37.5733 84.4597 37.52 84.2263 37.52C83.993 37.52 83.783 37.5733 83.5963 37.68C83.4163 37.78 83.2763 37.9267 83.1763 38.12C83.0763 38.3133 83.0263 38.5433 83.0263 38.81V42H81.8963ZM90.2557 42.12C89.7357 42.12 89.269 41.9967 88.8557 41.75C88.449 41.4967 88.1257 41.1567 87.8857 40.73C87.6524 40.3033 87.5357 39.8233 87.5357 39.29C87.5357 38.7567 87.6557 38.2767 87.8957 37.85C88.1357 37.4233 88.459 37.0867 88.8657 36.84C89.2724 36.5933 89.7324 36.47 90.2457 36.47C90.679 36.47 91.0624 36.5567 91.3957 36.73C91.729 36.9033 91.9924 37.1433 92.1857 37.45L92.0157 37.71V34.43H93.1357V42H92.0657V40.9L92.1957 41.11C92.009 41.4367 91.7424 41.6867 91.3957 41.86C91.049 42.0333 90.669 42.12 90.2557 42.12ZM90.3657 41.07C90.679 41.07 90.959 40.9933 91.2057 40.84C91.459 40.6867 91.6557 40.4767 91.7957 40.21C91.9424 39.9367 92.0157 39.63 92.0157 39.29C92.0157 38.95 91.9424 38.6467 91.7957 38.38C91.6557 38.1133 91.459 37.9033 91.2057 37.75C90.959 37.5967 90.679 37.52 90.3657 37.52C90.0524 37.52 89.769 37.5967 89.5157 37.75C89.2624 37.9033 89.0657 38.1133 88.9257 38.38C88.7857 38.6467 88.7157 38.95 88.7157 39.29C88.7157 39.63 88.7857 39.9367 88.9257 40.21C89.0657 40.4767 89.259 40.6867 89.5057 40.84C89.759 40.9933 90.0457 41.07 90.3657 41.07ZM96.0749 42.12C95.7083 42.12 95.3849 42.0567 95.1049 41.93C94.8316 41.7967 94.6183 41.6167 94.4649 41.39C94.3116 41.1567 94.2349 40.8833 94.2349 40.57C94.2349 40.2767 94.2983 40.0133 94.4249 39.78C94.5583 39.5467 94.7616 39.35 95.0349 39.19C95.3083 39.03 95.6516 38.9167 96.0649 38.85L97.9449 38.54V39.43L96.2849 39.72C95.9849 39.7733 95.7649 39.87 95.6249 40.01C95.4849 40.1433 95.4149 40.3167 95.4149 40.53C95.4149 40.7367 95.4916 40.9067 95.6449 41.04C95.8049 41.1667 96.0083 41.23 96.2549 41.23C96.5616 41.23 96.8283 41.1633 97.0549 41.03C97.2883 40.8967 97.4683 40.72 97.5949 40.5C97.7216 40.2733 97.7849 40.0233 97.7849 39.75V38.36C97.7849 38.0933 97.6849 37.8767 97.4849 37.71C97.2916 37.5367 97.0316 37.45 96.7049 37.45C96.4049 37.45 96.1416 37.53 95.9149 37.69C95.6949 37.8433 95.5316 38.0433 95.4249 38.29L94.4849 37.82C94.5849 37.5533 94.7483 37.32 94.9749 37.12C95.2016 36.9133 95.4649 36.7533 95.7649 36.64C96.0716 36.5267 96.3949 36.47 96.7349 36.47C97.1616 36.47 97.5383 36.55 97.8649 36.71C98.1983 36.87 98.4549 37.0933 98.6349 37.38C98.8216 37.66 98.9149 37.9867 98.9149 38.36V42H97.8349V41.02L98.0649 41.05C97.9383 41.27 97.7749 41.46 97.5749 41.62C97.3816 41.78 97.1583 41.9033 96.9049 41.99C96.6583 42.0767 96.3816 42.12 96.0749 42.12ZM100.236 42V36.59H101.316V37.68L101.216 37.52C101.336 37.1667 101.53 36.9133 101.796 36.76C102.063 36.6 102.383 36.52 102.756 36.52H103.086V37.55H102.616C102.243 37.55 101.94 37.6667 101.706 37.9C101.48 38.1267 101.366 38.4533 101.366 38.88V42H100.236ZM103.859 42V36.59H104.989V42H103.859ZM103.859 35.85V34.55H104.989V35.85H103.859Z" fill="white"/>
</svg>
